<svg xmlns="http://www.w3.org/2000/svg" viewBox="0 0 72.68 58.36"><defs><style>.cls-1{fill:#1c3761;}.cls-2{fill:#ec681c;}</style></defs><g id="logo"><path class="cls-1" d="M55.79,29.36a6.69,6.69,0,0,1-1.58,1.74,6.88,6.88,0,0,1-1.4.83,8.39,8.39,0,0,1-2,.62v-.1a9.93,9.93,0,0,0-.28-2.36,6.68,6.68,0,0,0-.32-1h0l0-.05c0-.11-.12-.29-.23-.52a9.29,9.29,0,0,0-.54-.94A6.44,6.44,0,0,0,47.88,26a4.51,4.51,0,0,0-1.21-.65,4.41,4.41,0,0,0-1.52-.27H45a4.37,4.37,0,0,0-2.21.65,4.52,4.52,0,0,0-1.59,1.63,5.25,5.25,0,0,0-.45,1,4.8,4.8,0,0,0-.18,1.3,5.45,5.45,0,0,0,.49,2.19,6.62,6.62,0,0,0,1,1.56,7.16,7.16,0,0,0,1.3,1.22,11.17,11.17,0,0,0,1.36.86,6.69,6.69,0,0,0,1.52.6,10.74,10.74,0,0,1-1.34,1.93l0,.06,0,0a12.53,12.53,0,0,1-1.67,1.91,6.2,6.2,0,0,1-2,1.27,3.22,3.22,0,0,1-1.16.24l-.25,0h0a1.63,1.63,0,0,1-.44-.21,2.6,2.6,0,0,1-.72-.75,5.39,5.39,0,0,1-.44-.83,8.66,8.66,0,0,1-.42-1.41,10,10,0,0,1-.16-1.1A18.09,18.09,0,0,0,37.2,35a13.31,13.31,0,0,0-.86-2.69,7.76,7.76,0,0,0-.91-1.5,5.06,5.06,0,0,0-1.79-1.47,4.3,4.3,0,0,0-1-.34,4.61,4.61,0,0,0-1-.1,5.05,5.05,0,0,0-1.42.21,7,7,0,0,0-1.49.63c-.27.16-.46.3-.56.37l-.07.05a6.4,6.4,0,0,0-.95.92,9.6,9.6,0,0,0-1.61,2.6l0,.07c-.75,1.76-1.37,3.81-2.78,5.22a7.63,7.63,0,0,1-5.44,2.29,5.38,5.38,0,0,1-4.44-2.4A5.4,5.4,0,0,1,12.74,34a7,7,0,0,1,.87-1.5,8.48,8.48,0,0,0,1,.86,8.11,8.11,0,0,0,6.81,1A4.78,4.78,0,0,0,25,29.79a4.66,4.66,0,0,0-3.27-3.85,8.33,8.33,0,0,0-5.26.26,13.08,13.08,0,0,0-2.06.92,11.49,11.49,0,0,1-.53-1.82l-.12-.66a11.53,11.53,0,0,0,2.6.35,11,11,0,0,0,6.74-2.21c2.64-2.19,3.65-6.65,1.73-9.61C23.35,11,20.28,10.54,17.85,11c-4,.81-6.74,4.31-7.63,8.16,0,0,0,.05,0,.08l-2.43-1a.31.31,0,0,0-.42.2l-.82,3.1a.32.32,0,0,0,.16.36c1.14.6,2.2,1.08,3.15,1.47a15.71,15.71,0,0,0,.81,4.4,11.51,11.51,0,0,0,.71,1.66,10.45,10.45,0,0,0-1.83,2.6,9.37,9.37,0,0,0,.27,8.89,9.12,9.12,0,0,0,7.6,4.13,11.82,11.82,0,0,0,8-3.61c1.64-1.55,2.7-4.29,3.62-6.65l0-.07a5.67,5.67,0,0,1,.86-1.32,4,4,0,0,1,.36-.36L30.3,33h0l0,0h0a3,3,0,0,1,.49-.28,2,2,0,0,1,.43-.15,1.49,1.49,0,0,1,.4-.06.83.83,0,0,1,.36.07,1,1,0,0,1,.3.19,2.91,2.91,0,0,1,.65.9,9.28,9.28,0,0,1,.7,2.12A15.19,15.19,0,0,1,34,37.58a12.73,12.73,0,0,0,.23,1.53,11.38,11.38,0,0,0,.43,1.54A8.16,8.16,0,0,0,36,43.12a5.8,5.8,0,0,0,1.16,1.1,5.27,5.27,0,0,0,1.54.76h0a4.67,4.67,0,0,0,1.31.17A6.57,6.57,0,0,0,41.56,45a8.54,8.54,0,0,0,2.93-1.39,14.18,14.18,0,0,0,3.13-3.19l.06-.07a13.38,13.38,0,0,0,2.42-4l.77-.09A12.62,12.62,0,0,0,55,34.85a10.29,10.29,0,0,0,2-1.46,9.87,9.87,0,0,0,1.78-2.13ZM20,29.14c.79.27,1.5,1.29.77,1.91a1.18,1.18,0,0,1-.63.26A4.85,4.85,0,0,1,16.28,30,4.39,4.39,0,0,1,20,29.14ZM14,19.41A7.74,7.74,0,0,1,17.7,14.9c1.51-.78,3.75-.8,4.3,1.16a3,3,0,0,1,0,1.49,4.76,4.76,0,0,1-1.49,2.69,4.83,4.83,0,0,1-2.74.93,11.5,11.5,0,0,1-4-.56A7,7,0,0,1,14,19.41ZM45.48,31.77a4,4,0,0,1-.67-.63,3.25,3.25,0,0,1-.46-.72,2.14,2.14,0,0,1-.18-.73.9.9,0,0,1,0-.3l.11-.25a1,1,0,0,1,.34-.35.85.85,0,0,1,.45-.14h0a1.17,1.17,0,0,1,.27,0l.24.11a2.36,2.36,0,0,1,.47.41,4.16,4.16,0,0,1,.57.84,3.27,3.27,0,0,1,.14.3l0,.07,0,.07,0,0h0v0a2.83,2.83,0,0,1,.15.51,6,6,0,0,1,.16,1.39v.22a3.39,3.39,0,0,1-.83-.32A8.88,8.88,0,0,1,45.48,31.77Z"/><path class="cls-2" d="M66,29l-2.61,1.3a.34.34,0,0,1-.45-.16,16.88,16.88,0,0,1-1.19-3.34L59.66,30l-3-1.9c.79-1.27,1.49-2.38,2.09-3.32a15.42,15.42,0,0,1-2.61.23A9,9,0,0,1,55.05,25a.33.33,0,0,1-.3-.38l.3-2v0h0V21.49h0v0h0l.15,0,.7,0a12.66,12.66,0,0,0,2.56-.27A13.91,13.91,0,0,0,62,20a.34.34,0,0,1,.39.07l0,0,0,0,0,0,0,0,0,0,0,0,.06.05,0,.05.06.05.05.05.07,0,.06.05.07.06.07,0,.07.06.07.06.08.05.08.06.08.06.08.06.09.05.08.06.09.06.1,0,.09.06.1.05.09.06.1.05.11,0,.1.05.1.05.11,0,.11.05h.06v0s0,.1,0,.19a8.06,8.06,0,0,0,0,.84,12.73,12.73,0,0,0,.27,2.53,14,14,0,0,0,1,3.12A.35.35,0,0,1,66,29Z"/></g></svg>